<!DOCTYPE svg PUBLIC "-//W3C//DTD SVG 1.1//EN" "http://www.w3.org/Graphics/SVG/1.1/DTD/svg11.dtd">
<!-- Uploaded to: SVG Repo, www.svgrepo.com, Transformed by: SVG Repo Mixer Tools -->
<svg fill="#ffffff" width="800px" height="800px" viewBox="0 0 24 24" xmlns="http://www.w3.org/2000/svg" id="delete-alt" class="icon glyph" stroke="#ffffff">
<g id="SVGRepo_bgCarrier" stroke-width="0"/>
<g id="SVGRepo_tracerCarrier" stroke-linecap="round" stroke-linejoin="round"/>
<g id="SVGRepo_iconCarrier">
<path d="M17,4V5H15V4H9V5H7V4A2,2,0,0,1,9,2h6A2,2,0,0,1,17,4Z"/>
<path d="M20,6H4A1,1,0,0,0,4,8H5V20a2,2,0,0,0,2,2H17a2,2,0,0,0,2-2V8h1a1,1,0,0,0,0-2ZM11,17a1,1,0,0,1-2,0V11a1,1,0,0,1,2,0Zm4,0a1,1,0,0,1-2,0V11a1,1,0,0,1,2,0Z"/>
</g>
</svg>