<!DOCTYPE svg PUBLIC "-//W3C//DTD SVG 1.1//EN" "http://www.w3.org/Graphics/SVG/1.1/DTD/svg11.dtd">
<!-- Uploaded to: SVG Repo, www.svgrepo.com, Transformed by: SVG Repo Mixer Tools -->
<svg width="800px" height="800px" viewBox="0 0 24 24" fill="none" xmlns="http://www.w3.org/2000/svg">
<g id="SVGRepo_bgCarrier" stroke-width="0"/>
<g id="SVGRepo_tracerCarrier" stroke-linecap="round" stroke-linejoin="round"/>
<g id="SVGRepo_iconCarrier"> <path opacity="0.15" d="M19.3889 5H4.61111C3.44518 5 2.5 6.04467 2.5 7.33333V16.6667C2.5 17.9553 3.44518 19 4.61111 19H19.3889C20.5548 19 21.5 17.9553 21.5 16.6667V15H14C14 15 11 15 11 12C11 9 14 9 14 9H21.5V7.33333C21.5 6.04467 20.5548 5 19.3889 5Z" fill="#ffffff"/> <path d="M21.5 9H14C12.3431 9 11 10.3431 11 12C11 13.6569 12.3431 15 14 15H21.5M14 12V12.01M4.61111 5H19.3889C20.5548 5 21.5 6.04467 21.5 7.33333V16.6667C21.5 17.9553 20.5548 19 19.3889 19H4.61111C3.44518 19 2.5 17.9553 2.5 16.6667V7.33333C2.5 6.04467 3.44518 5 4.61111 5Z" stroke="#ffffff" stroke-width="1.5" stroke-linecap="round" stroke-linejoin="round"/> </g>
</svg>