<?xml version="1.0" standalone="no"?>
<!DOCTYPE svg PUBLIC "-//W3C//DTD SVG 20010904//EN"
 "http://www.w3.org/TR/2001/REC-SVG-20010904/DTD/svg10.dtd">
<svg version="1.0" xmlns="http://www.w3.org/2000/svg"
 width="482.000000pt" height="482.000000pt" viewBox="0 0 482.000000 482.000000"
 preserveAspectRatio="xMidYMid meet">

<g transform="translate(0.000000,482.000000) scale(0.100000,-0.100000)"
fill="#000000" stroke="none">
<path d="M1426 3409 c-125 -29 -278 -155 -379 -310 -31 -47 -130 -238 -220
-425 -91 -186 -247 -508 -347 -714 -100 -206 -202 -417 -226 -468 l-44 -93
598 3 597 3 67 33 c69 34 124 87 152 146 120 253 361 731 385 764 l32 43 400
-393 c220 -216 424 -413 453 -438 202 -168 411 -204 606 -105 102 52 227 182
307 320 30 51 227 454 428 875 62 129 172 356 243 503 l131 268 -592 -3 c-674
-4 -644 0 -742 -90 -51 -46 -67 -74 -254 -451 -110 -221 -209 -413 -220 -425
l-21 -24 -417 411 c-230 225 -439 426 -464 445 -71 53 -167 103 -234 121 -64
16 -177 18 -239 4z m1047 -844 c83 -17 155 -49 237 -105 l62 -42 -48 -50 c-97
-99 -241 -144 -369 -118 -75 15 -191 68 -257 117 l-51 37 57 53 c64 60 112 87
189 108 67 18 97 18 180 0z"/>
</g>
</svg>
