<?xml version="1.0" standalone="no"?>
<!DOCTYPE svg PUBLIC "-//W3C//DTD SVG 20010904//EN"
 "http://www.w3.org/TR/2001/REC-SVG-20010904/DTD/svg10.dtd">
<svg version="1.0" xmlns="http://www.w3.org/2000/svg"
 width="500.000000pt" height="500.000000pt" viewBox="0 0 500.000000 500.000000"
 preserveAspectRatio="xMidYMid meet">

<g transform="translate(0.000000,500.000000) scale(0.100000,-0.100000)"
fill="#000000" stroke="none">
<path d="M4180 4171 l0 -191 -49 0 c-73 0 -171 -35 -254 -90 l-73 -49 -71
-148 c-104 -215 -214 -468 -393 -898 -247 -595 -229 -547 -214 -562 11 -12 10
-22 -7 -66 -37 -93 -79 -201 -79 -205 0 -2 14 -8 30 -13 17 -6 30 -16 30 -22
-1 -37 -267 -563 -374 -738 -24 -41 -43 -76 -41 -78 2 -2 96 -6 209 -10 l205
-6 65 115 c144 255 317 632 621 1355 243 576 329 770 471 1055 l122 245 20
-45 c29 -62 42 -155 42 -291 0 -134 16 -202 57 -241 91 -88 236 -72 347 36
150 146 177 373 72 611 -45 100 -155 255 -245 345 l-86 85 -5 -67 -5 -67 -65
55 -65 55 -5 -70 -5 -70 -51 43 c-67 56 -142 103 -176 111 l-28 7 0 -191z"/>
<path d="M2217 3706 c-94 -35 -135 -78 -284 -301 -142 -213 -262 -418 -571
-983 -98 -177 -110 -205 -101 -226 9 -19 5 -35 -25 -94 -41 -82 -44 -102 -15
-109 25 -7 24 -9 -58 -147 -152 -253 -268 -414 -348 -484 -53 -48 -122 -84
-143 -77 -27 8 -99 102 -172 225 -77 129 -110 174 -120 163 -4 -4 -24 -77 -45
-161 -33 -133 -36 -157 -25 -177 28 -52 121 -159 181 -207 l64 -51 0 -61 0
-61 44 -9 43 -9 -7 -60 -6 -60 43 7 c67 10 177 69 258 139 96 81 271 283 364
417 276 401 355 530 621 1010 112 204 130 232 121 190 -12 -51 -36 -331 -46
-522 -11 -206 -2 -501 21 -677 l12 -94 146 8 c80 4 147 8 148 9 2 2 -2 106 -8
232 -14 309 -1 573 47 908 27 186 41 248 44 191 1 -16 5 -41 9 -55 7 -23 9
-22 21 20 7 25 16 49 20 53 4 4 19 -23 35 -60 15 -37 31 -72 35 -76 12 -14
120 779 120 884 0 87 -22 148 -77 209 -66 73 -129 103 -228 107 -52 2 -93 -2
-118 -11z"/>
</g>
</svg>
